<svg aria-hidden="true" focusable="false" data-prefix="fab" data-icon="git-alt" class="svg-inline--fa fa-git-alt fa-w-14" role="img" xmlns="http://www.w3.org/2000/svg" viewBox="0 0 550 135"><path d="M138.936 105l14.496-68.544h15.456c7.424 0 12.704 1.664 15.84 4.992 3.136 3.264 4.704 7.552 4.704 12.864 0 7.744-2.56 13.664-7.68 17.76-5.12 4.096-12.608 6.144-22.464 6.144h-6.144L147.48 105h-8.544zm21.696-33.984c6.144 0 11.008-1.312 14.592-3.936 3.648-2.688 5.472-6.848 5.472-12.48 0-3.776-1.088-6.496-3.264-8.16-2.112-1.728-5.344-2.592-9.696-2.592h-7.296l-5.76 27.168h5.952zm47.365 34.944c-4.096 0-7.456-1.472-10.08-4.416-2.56-3.008-3.84-7.392-3.84-13.152 0-4.8.608-9.344 1.824-13.632 1.28-4.352 3.04-8.16 5.28-11.424 2.24-3.328 4.896-5.952 7.968-7.872s6.464-2.88 10.176-2.88c3.392 0 6.144.896 8.256 2.688 2.112 1.792 3.68 3.872 4.704 6.24h.48l3.072-7.968h6.432L231.325 105h-6.72l1.248-9.504h-.384a36.619 36.619 0 01-7.68 7.392c-2.944 2.048-6.208 3.072-9.792 3.072zm2.784-7.008c2.368 0 4.672-.864 6.912-2.592 2.304-1.728 4.384-4.064 6.24-7.008 1.856-2.944 3.264-6.24 4.224-9.888.512-1.856.832-3.552.96-5.088.192-1.6.288-3.072.288-4.416 0-3.008-.832-5.472-2.496-7.392-1.664-1.92-3.904-2.88-6.72-2.88-2.496 0-4.8.8-6.912 2.4-2.112 1.536-3.968 3.68-5.568 6.432-1.6 2.688-2.848 5.76-3.744 9.216-.832 3.456-1.248 7.072-1.248 10.848 0 3.456.704 6.048 2.112 7.776 1.408 1.728 3.392 2.592 5.952 2.592zm30.85 29.088c-1.536 0-2.784-.096-3.744-.288a31.885 31.885 0 01-2.88-.672v-6.816c.896.256 1.856.448 2.88.576a17.7 17.7 0 003.264.288c2.624 0 4.832-.8 6.624-2.4 1.856-1.6 3.616-3.936 5.28-7.008l3.36-5.952-7.776-52.224h8.448l3.36 25.44c.32 2.048.544 4.32.672 6.816.192 2.432.32 4.768.384 7.008.128 2.176.192 3.936.192 5.28h.288c.448-1.024 1.088-2.56 1.92-4.608.896-2.048 1.856-4.16 2.88-6.336 1.024-2.176 1.92-3.968 2.688-5.376l14.976-28.224h9.024l-32.64 60.096c-2.56 4.8-5.28 8.384-8.16 10.752-2.816 2.432-6.496 3.648-11.04 3.648z" fill="#113984"/><path d="M138.936 105l-3.913-.828-1.021 4.828h4.934v-4zm14.496-68.544v-4h-3.243l-.67 3.172 3.913.828zm31.296 4.992l-2.911 2.743.013.014.014.014 2.884-2.771zm-2.976 30.624l-2.499-3.124 2.499 3.124zm-28.608 6.144v-4h-3.243l-.67 3.172 3.913.828zM147.48 105v4h3.243l.67-3.172-3.913-.828zm27.744-37.92l2.363 3.228.01-.008-2.373-3.22zm2.208-20.64l-2.533 3.096.051.041.052.04 2.43-3.177zm-16.992-2.592v-4h-3.241l-.672 3.17 3.913.83zm-5.76 27.168l-3.913-.83-1.024 4.83h4.937v-4zm-11.831 34.812l14.496-68.544-7.826-1.656-14.496 68.544 7.826 1.656zm10.583-65.372h15.456v-8h-15.456v8zm15.456 0c6.985 0 10.907 1.59 12.929 3.735l5.822-5.486c-4.25-4.51-10.888-6.249-18.751-6.249v8zm12.956 3.763c2.297 2.391 3.588 5.622 3.588 10.093h8c0-6.153-1.845-11.498-5.82-15.635l-5.768 5.542zm3.588 10.093c0 6.775-2.184 11.44-6.179 14.636l4.998 6.248c6.245-4.997 9.181-12.17 9.181-20.884h-8zm-6.179 14.636c-4.131 3.306-10.58 5.268-19.965 5.268v8c10.327 0 18.854-2.134 24.963-7.02l-4.998-6.248zm-19.965 5.268h-6.144v8h6.144v-8zm-10.057 3.172l-5.664 26.784 7.826 1.656 5.664-26.784-7.826-1.656zM147.48 101h-8.544v8h8.544v-8zm13.152-25.984c6.675 0 12.467-1.423 16.955-4.709l-4.726-6.455c-2.68 1.963-6.616 3.164-12.229 3.164v8zm16.965-4.716c4.92-3.625 7.099-9.141 7.099-15.7h-8c0 4.705-1.469 7.509-3.845 9.26l4.746 6.44zm7.099-15.7c0-4.519-1.328-8.656-4.834-11.337l-4.86 6.354c.846.647 1.694 1.95 1.694 4.983h8zm-4.731-11.256c-3.143-2.572-7.468-3.496-12.229-3.496v8c3.943 0 6.082.803 7.163 1.688l5.066-6.192zm-12.229-3.496h-7.296v8h7.296v-8zm-11.209 3.17l-5.76 27.168 7.826 1.66 5.76-27.168-7.826-1.66zm-1.847 31.998h5.952v-8h-5.952v8zm43.237 26.528l-3.046 2.592.029.035.031.034 2.986-2.661zm-2.016-26.784l-3.838-1.129-.005.019-.006.019 3.849 1.091zm5.28-11.424l3.298 2.263.01-.014.01-.015-3.318-2.234zm7.968-7.872l-2.12-3.392 2.12 3.392zm23.136 6.048l-3.672 1.588 1.044 2.412h2.628v-4zm.48 0v4h2.745l.987-2.561-3.732-1.439zm3.072-7.968v-4h-2.745l-.987 2.561 3.732 1.439zm6.432 0l3.912.832 1.028-4.832h-4.94v4zM231.325 105v4h3.238l.674-3.168-3.912-.832zm-6.72 0l-3.966-.521-.594 4.521h4.56v-4zm1.248-9.504l3.966.52.593-4.52h-4.559v4zm-.384 0v-4h-1.964l-1.201 1.554 3.165 2.446zm-7.68 7.392l2.284 3.284.024-.017.023-.017-2.331-3.25zm-.096-6.528l-2.4-3.2-.022.016-.021.017 2.443 3.167zm6.24-7.008l3.383 2.133-3.383-2.133zm4.224-9.888l-3.856-1.064-.007.023-.006.023 3.869 1.018zm.96-5.088l-3.972-.477-.008.073-.006.072 3.986.332zm-15.84-12.288l2.352 3.235.032-.023.031-.024-2.415-3.188zm-5.568 6.432l3.437 2.046.01-.018.011-.017-3.458-2.011zm-3.744 9.216l-3.872-1.004-.009.034-.008.034 3.889.936zm4.032 24.224c-3.006 0-5.262-1.022-7.094-3.078l-5.972 5.323c3.415 3.833 7.879 5.755 13.066 5.755v-8zm-7.034-3.008c-1.716-2.016-2.886-5.325-2.886-10.56h-8c0 6.285 1.389 11.744 4.794 15.744l6.092-5.184zm-2.886-10.56c0-4.46.564-8.634 1.672-12.54l-7.697-2.183c-1.324 4.669-1.975 9.582-1.975 14.723h8zm1.661-12.503c1.178-4.006 2.771-7.42 4.741-10.29l-6.596-4.526c-2.511 3.658-4.438 7.86-5.82 12.558l7.675 2.258zm4.761-10.32c1.96-2.912 4.223-5.121 6.77-6.713l-4.24-6.784c-3.598 2.248-6.647 5.287-9.167 9.03l6.637 4.468zm6.77-6.713c2.42-1.513 5.074-2.272 8.056-2.272v-8c-4.442 0-8.572 1.16-12.296 3.488l4.24 6.784zm8.056-2.272c2.665 0 4.431.689 5.668 1.738l5.176-6.1c-2.988-2.535-6.725-3.638-10.844-3.638v8zm5.668 1.738c1.678 1.424 2.858 3.015 3.62 4.778l7.343-3.176c-1.286-2.973-3.242-5.542-5.787-7.702l-5.176 6.1zm7.292 7.19h.48v-8h-.48v8zm4.212-2.561l3.072-7.968-7.464-2.878-3.072 7.968 7.464 2.878zm-.66-5.407h6.432v-8h-6.432v8zm2.519-4.832l-10.944 51.456 7.825 1.664 10.944-51.456-7.825-1.664zM231.325 101h-6.72v8h6.72v-8zm-2.754 4.521l1.248-9.504-7.932-1.042-1.248 9.504 7.932 1.042zm-2.718-14.025h-.384v8h.384v-8zm-3.549 1.554a32.62 32.62 0 01-6.847 6.588l4.663 6.5a40.605 40.605 0 008.514-8.196l-6.33-4.892zm-6.8 6.554c-2.274 1.582-4.741 2.356-7.507 2.356v8c4.401 0 8.462-1.274 12.076-3.788l-4.569-6.568zm-4.723 3.348c3.415 0 6.556-1.266 9.355-3.425l-4.886-6.334c-1.681 1.297-3.148 1.759-4.469 1.759v8zm9.312-3.392c2.766-2.075 5.16-4.802 7.223-8.075l-6.767-4.266c-1.649 2.615-3.414 4.56-5.256 5.941l4.8 6.4zm7.223-8.075c2.091-3.316 3.654-6.994 4.709-11.003l-7.737-2.036c-.864 3.287-2.118 6.201-3.739 8.773l6.767 4.266zm4.697-10.957c.562-2.04.937-3.984 1.09-5.82l-7.972-.664c-.103 1.236-.369 2.683-.83 4.356l7.712 2.128zm1.075-5.675c.208-1.729.317-3.362.317-4.893h-8a33.23 33.23 0 01-.26 3.94l7.943.953zm.317-4.893c0-3.784-1.067-7.235-3.473-10.012l-6.046 5.24c.922 1.063 1.519 2.54 1.519 4.772h8zm-3.473-10.012c-2.512-2.898-5.908-4.26-9.743-4.26v8c1.797 0 2.881.558 3.697 1.5l6.046-5.24zm-9.743-4.26c-3.424 0-6.566 1.12-9.328 3.212l4.831 6.376c1.463-1.108 2.928-1.588 4.497-1.588v-8zm-9.265 3.165c-2.649 1.926-4.854 4.527-6.673 7.657l6.916 4.02c1.38-2.374 2.887-4.061 4.462-5.207l-4.705-6.47zm-6.652 7.621c-1.819 3.055-3.201 6.487-4.179 10.258l7.744 2.008c.814-3.14 1.927-5.853 3.309-8.174l-6.874-4.092zM200.076 76.8c-.91 3.78-1.359 7.712-1.359 11.784h8c0-3.48.383-6.78 1.137-9.912l-7.778-1.872zm-1.359 11.784c0 3.896.777 7.561 3.011 10.303l6.202-5.054c-.582-.714-1.213-2.233-1.213-5.249h-8zm3.011 10.303c2.286 2.805 5.491 4.065 9.053 4.065v-8c-1.558 0-2.321-.468-2.851-1.119l-6.202 5.054zm36.159 28.865l.785-3.922-.024-.005-.024-.004-.737 3.931zm-2.88-.672h-4v3.017l2.901.829 1.099-3.846zm0-6.816l1.099-3.846-5.099-1.457v5.303h4zm2.88.576l.737-3.931-.12-.023-.121-.015-.496 3.969zm9.888-2.112l-2.612-3.03-.026.023-.026.023 2.664 2.984zm5.28-7.008l-3.483-1.966-.017.03-.017.031 3.517 1.905zm3.36-5.952l3.484 1.966.675-1.196-.202-1.359-3.957.589zm-7.776-52.224v-4H244l.683 4.59 3.956-.59zm8.448 0l3.966-.524-.459-3.476h-3.507v4zm3.36 25.44l-3.965.524.006.047.007.046 3.952-.617zm.672 6.816l-3.995.205.003.055.005.055 3.987-.315zm.384 7.008l-3.998.114.002.06.003.06 3.993-.234zm.192 5.28h-4v4h4v-4zm.288 0v4h2.616l1.049-2.397-3.665-1.603zm1.92-4.608l-3.664-1.603-.022.048-.02.05 3.706 1.505zm2.88-6.336l3.62 1.703-3.62-1.703zm2.688-5.376l3.512 1.915.011-.02.011-.02-3.534-1.875zm14.976-28.224v-4h-2.406l-1.127 2.125 3.533 1.875zm9.024 0l3.515 1.91 3.21-5.91h-6.725v4zm-32.64 60.096l-3.515-1.909-.007.013-.007.014 3.529 1.882zm-8.16 10.752l-2.54-3.09-.038.031-.036.032 2.614 3.027zm-11.04-.352c-1.403 0-2.36-.09-2.959-.21l-1.569 7.844c1.321.264 2.859.366 4.528.366v-8zm-3.007-.219a28.067 28.067 0 01-2.518-.587l-2.198 7.692c1.028.294 2.11.545 3.242.757l1.474-7.862zm.383 3.259v-6.816h-8v6.816h8zm-5.099-2.97c1.114.318 2.277.548 3.483.699l.992-7.938a15.101 15.101 0 01-2.277-.453l-2.198 7.692zm3.242.661c1.291.243 2.628.357 4.001.357v-8c-.93 0-1.77-.078-2.527-.219l-1.474 7.862zm4.001.357c3.509 0 6.693-1.099 9.288-3.416l-5.328-5.968c-.989.883-2.22 1.384-3.96 1.384v8zm9.236-3.37c2.344-2.021 4.381-4.801 6.185-8.133l-7.034-3.81c-1.523 2.812-3.007 4.704-4.375 5.883l5.224 6.06zm6.152-8.072l3.36-5.952-6.967-3.932-3.36 5.952 6.967 3.932zm3.833-8.507l-7.776-52.224-7.913 1.178 7.776 52.224 7.913-1.178zm-11.733-47.635h8.448v-8h-8.448v8zm4.483-3.476l3.36 25.44 7.931-1.048-3.36-25.44-7.931 1.048zm3.373 25.534c.295 1.886.507 4.018.629 6.403l7.99-.41c-.134-2.607-.37-5.02-.715-7.228l-7.904 1.234zm.637 6.513c.187 2.37.311 4.64.373 6.807l7.997-.228a143.635 143.635 0 00-.395-7.209l-7.975.63zm.378 6.928c.126 2.14.185 3.812.185 5.045h8c0-1.455-.068-3.302-.199-5.515l-7.986.47zm4.185 9.045h.288v-8h-.288v8zm3.953-2.397a208.21 208.21 0 001.961-4.706l-7.412-3.01a198.559 198.559 0 01-1.878 4.51l7.329 3.206zm1.92-4.608c.88-2.012 1.825-4.09 2.835-6.236l-7.239-3.406a256.81 256.81 0 00-2.925 6.436l7.329 3.206zm2.835-6.236c1.005-2.136 1.864-3.85 2.58-5.164l-7.023-3.83c-.82 1.502-1.753 3.372-2.796 5.588l7.239 3.406zm2.602-5.204l14.976-28.224-7.067-3.75-14.976 28.224 7.067 3.75zm11.442-26.099h9.024v-8h-9.024v8zm5.509-5.91l-32.64 60.097 7.03 3.818 32.64-60.096-7.03-3.818zm-32.654 60.124c-2.417 4.531-4.838 7.626-7.171 9.544l5.081 6.18c3.427-2.818 6.445-6.891 9.149-11.96l-7.059-3.764zm-7.245 9.607c-1.938 1.673-4.621 2.675-8.426 2.675v8c5.283 0 9.961-1.43 13.655-4.621l-5.229-6.054z" fill="#113984"/><path d="M17.065 116.379L16.299 120h14.489l.505-2.377 9.055-42.66.003-.017.004-.017.043-.217 5.181 42.65.32 2.638H57.398l.855-1.556 23.965-43.653-8.833 41.586-.77 3.623H87.715l.496-2.391 14.726-71 .749-3.609H84.585l-.852 1.566L56.369 94.86l-5.828-49.212L50.228 43H32.593l-.503 2.379-15.025 71z" fill="#009EE3" stroke="#009EE3" stroke-width="6"/><path d="M3.043 106.586L2.532 109H19.48l.336-1.586 8.189-38.662h7.626c15.069 0 26.858-3.12 35.058-9.67C78.96 52.477 83 42.955 83 30.832c0-8.4-2.497-15.37-7.632-20.71C70.09 4.535 61.468 2 50.08 2H25.197l-.336 1.586-21.818 103z" fill="#113984" stroke="#113984" stroke-width="4"/><path d="M292.84 111l14.496-68.544h12.096l6.624 55.968h.384l30.432-55.968h13.152L355.816 111h-8.64l8.64-40.704c.896-4.16 1.728-7.936 2.496-11.328.832-3.392 1.536-6.112 2.112-8.16h-.192L327.208 111h-6.816l-7.296-60.096h-.384c-.128 1.28-.352 3.008-.672 5.184-.32 2.112-.704 4.384-1.152 6.816-.384 2.368-.8 4.672-1.248 6.912L300.904 111h-8.064zm95.407.96c-4.096 0-7.456-1.472-10.08-4.416-2.56-3.008-3.84-7.392-3.84-13.152 0-4.8.608-9.344 1.824-13.632 1.28-4.352 3.04-8.16 5.28-11.424 2.24-3.328 4.896-5.952 7.968-7.872s6.464-2.88 10.176-2.88c3.392 0 6.144.896 8.256 2.688 2.112 1.792 3.68 3.872 4.704 6.24h.48l3.072-7.968h6.432L411.575 111h-6.72l1.248-9.504h-.384a36.619 36.619 0 01-7.68 7.392c-2.944 2.048-6.208 3.072-9.792 3.072zm2.784-7.008c2.368 0 4.672-.864 6.912-2.592 2.304-1.728 4.384-4.064 6.24-7.008 1.856-2.944 3.264-6.24 4.224-9.888.512-1.856.832-3.552.96-5.088.192-1.6.288-3.072.288-4.416 0-3.008-.832-5.472-2.496-7.392-1.664-1.92-3.904-2.88-6.72-2.88-2.496 0-4.8.8-6.912 2.4-2.112 1.536-3.968 3.68-5.568 6.432-1.6 2.688-2.848 5.76-3.744 9.216-.832 3.456-1.248 7.072-1.248 10.848 0 3.456.704 6.048 2.112 7.776 1.408 1.728 3.392 2.592 5.952 2.592zm51.01 7.008c-3.456 0-6.368-.832-8.736-2.496-2.368-1.664-3.552-4.576-3.552-8.736 0-2.048.288-4.32.864-6.816l5.856-27.936h-7.968l.768-3.84 8.64-3.648 5.952-10.656h4.992l-2.592 11.712h12.96l-1.344 6.432h-12.864l-5.952 28.032a57.046 57.046 0 00-.576 2.88 15.672 15.672 0 00-.288 2.88c0 1.472.384 2.72 1.152 3.744.832 1.024 2.144 1.536 3.936 1.536a19.3 19.3 0 003.36-.288 48.111 48.111 0 003.456-.96v6.432c-.768.384-1.952.768-3.552 1.152-1.6.384-3.104.576-4.512.576zm37.347 0c-5.952 0-10.56-1.728-13.824-5.184-3.2-3.52-4.8-8.256-4.8-14.208 0-4.096.576-8.128 1.728-12.096 1.216-4.032 2.944-7.68 5.184-10.944 2.24-3.328 4.928-5.984 8.064-7.968 3.2-1.984 6.784-2.976 10.752-2.976 4.864 0 8.512 1.056 10.944 3.168 2.496 2.112 3.744 5.056 3.744 8.832 0 3.328-1.056 6.368-3.168 9.12-2.048 2.752-5.28 4.96-9.696 6.624-4.416 1.6-10.144 2.4-17.184 2.4H469.5c-.064.576-.128 1.184-.192 1.824v1.728c0 3.904.96 7.008 2.88 9.312 1.92 2.24 4.832 3.36 8.736 3.36 2.432 0 4.736-.352 6.912-1.056 2.176-.704 4.544-1.664 7.104-2.88v7.2a58.402 58.402 0 01-7.2 2.688c-2.304.704-5.088 1.056-8.352 1.056zm-7.968-30.048c3.84 0 7.392-.32 10.656-.96 3.264-.704 5.888-1.824 7.872-3.36 1.984-1.6 2.976-3.712 2.976-6.336 0-1.664-.576-3.008-1.728-4.032-1.088-1.088-2.816-1.632-5.184-1.632-3.072 0-6.048 1.44-8.928 4.32-2.816 2.816-4.928 6.816-6.336 12h.672z" fill="#009EE3"/><path d="M292.84 111l-3.913-.828-1.021 4.828h4.934v-4zm14.496-68.544v-4h-3.243l-.67 3.172 3.913.828zm12.096 0l3.972-.47-.417-3.53h-3.555v4zm6.624 55.968l-3.972.47.417 3.53h3.555v-4zm.384 0v4h2.378l1.136-2.089-3.514-1.911zm30.432-55.968v-4h-2.378l-1.136 2.09 3.514 1.91zm13.152 0l3.917.812.997-4.812h-4.914v4zM355.816 111v4h3.256l.661-3.188-3.917-.812zm-8.64 0l-3.913-.831-1.025 4.831h4.938v-4zm8.64-40.704l-3.91-.842-.003.011 3.913.831zm2.496-11.328l-3.885-.953-.008.035-.008.035 3.901.883zm2.112-8.16l3.851 1.083 1.429-5.083h-5.28v4zm-.192 0v-4h-2.368l-1.139 2.076 3.507 1.924zM327.208 111v4h2.368l1.139-2.076-3.507-1.924zm-6.816 0l-3.971.482.427 3.518h3.544v-4zm-7.296-60.096l3.971-.482-.427-3.518h-3.544v4zm-.384 0v-4h-3.62l-.36 3.602 3.98.398zm-.672 5.184l3.955.6.001-.01.001-.008-3.957-.582zm-1.152 6.816l-3.934-.725-.008.042-.006.043 3.948.64zm-1.248 6.912l3.913.83.005-.023.004-.023-3.922-.784zM300.904 111v4h3.241l.672-3.17-3.913-.83zm-4.151.828l14.496-68.544-7.826-1.656-14.496 68.544 7.826 1.656zm10.583-65.372h12.096v-8h-12.096v8zm8.124-3.53l6.624 55.968 7.944-.94-6.624-55.968-7.944.94zm10.596 59.498h.384v-8h-.384v8zm3.898-2.089l30.432-55.968-7.028-3.822-30.432 55.968 7.028 3.822zm26.918-53.879h13.152v-8h-13.152v8zm9.235-4.812l-14.208 68.544 7.834 1.624 14.208-68.544-7.834-1.624zM355.816 107h-8.64v8h8.64v-8zm-4.727 4.831l8.64-40.705-7.826-1.66-8.64 40.703 7.826 1.662zm8.637-40.693c.894-4.149 1.723-7.911 2.487-11.287l-7.802-1.766c-.772 3.408-1.607 7.198-2.505 11.369l7.82 1.684zm2.471-11.217c.827-3.372 1.519-6.044 2.078-8.03l-7.702-2.166c-.593 2.11-1.309 4.878-2.146 8.29l7.77 1.906zm-1.773-13.113h-.192v8h.192v-8zm-3.699 2.076l-33.024 60.192 7.014 3.848 33.024-60.192-7.014-3.848zM327.208 107h-6.816v8h6.816v-8zm-2.845 3.518l-7.296-60.096-7.942.964 7.296 60.096 7.942-.964zm-11.267-63.614h-.384v8h.384v-8zm-4.364 3.602c-.119 1.19-.333 2.849-.649 5l7.914 1.164c.324-2.2.558-3.998.695-5.368l-7.96-.796zm-.647 4.983a213.474 213.474 0 01-1.131 6.69l7.868 1.45c.454-2.468.846-4.782 1.173-6.942l-7.91-1.198zm-1.145 6.775a188.667 188.667 0 01-1.222 6.767l7.844 1.57c.458-2.29.883-4.643 1.274-7.057l-7.896-1.28zm-1.213 6.722l-8.736 41.184 7.826 1.66 8.736-41.184-7.826-1.66zM300.904 107h-8.064v8h8.064v-8zm77.263.544l-3.046 2.592.029.035.031.034 2.986-2.661zm-2.016-26.784l-3.838-1.129-.005.019-.006.019 3.849 1.091zm5.28-11.424l3.298 2.263.01-.014.01-.015-3.318-2.234zm7.968-7.872l-2.12-3.392 2.12 3.392zm23.136 6.048l-3.672 1.588 1.044 2.412h2.628v-4zm.48 0v4h2.745l.987-2.561-3.732-1.439zm3.072-7.968v-4h-2.745l-.987 2.561 3.732 1.439zm6.432 0l3.912.832 1.028-4.832h-4.94v4zM411.575 111v4h3.238l.674-3.168-3.912-.832zm-6.72 0l-3.966-.521-.594 4.521h4.56v-4zm1.248-9.504l3.966.521.593-4.521h-4.559v4zm-.384 0v-4h-1.964l-1.201 1.554 3.165 2.446zm-7.68 7.392l2.284 3.284.024-.017.023-.017-2.331-3.25zm-.096-6.528l-2.4-3.2-.022.016-.021.017 2.443 3.167zm6.24-7.008l3.383 2.133-3.383-2.133zm4.224-9.888l-3.856-1.064-.007.023-.006.023 3.869 1.018zm.96-5.088l-3.972-.477-.008.073-.006.072 3.986.332zm-15.84-12.288l2.352 3.235.032-.023.031-.024-2.415-3.188zm-5.568 6.432l3.437 2.046.01-.018.011-.017-3.458-2.011zm-3.744 9.216l-3.872-1.004-.009.034-.008.034 3.889.936zm4.032 24.224c-3.006 0-5.262-1.022-7.094-3.077l-5.972 5.322c3.415 3.833 7.879 5.755 13.066 5.755v-8zm-7.034-3.008c-1.716-2.016-2.886-5.325-2.886-10.56h-8c0 6.285 1.389 11.744 4.794 15.744l6.092-5.184zm-2.886-10.56c0-4.46.564-8.634 1.672-12.54l-7.697-2.183c-1.324 4.669-1.975 9.582-1.975 14.723h8zm1.661-12.503c1.178-4.006 2.771-7.42 4.741-10.29l-6.596-4.526c-2.511 3.658-4.438 7.86-5.82 12.558l7.675 2.258zm4.761-10.32c1.96-2.912 4.223-5.121 6.77-6.713l-4.24-6.784c-3.598 2.248-6.647 5.287-9.167 9.03l6.637 4.468zm6.77-6.713c2.42-1.512 5.074-2.272 8.056-2.272v-8c-4.442 0-8.572 1.16-12.296 3.488l4.24 6.784zm8.056-2.272c2.665 0 4.431.689 5.668 1.738l5.176-6.1c-2.988-2.535-6.725-3.638-10.844-3.638v8zm5.668 1.738c1.678 1.424 2.858 3.015 3.62 4.778l7.343-3.176c-1.286-2.973-3.242-5.542-5.787-7.702l-5.176 6.1zm7.292 7.19h.48v-8h-.48v8zm4.212-2.561l3.072-7.968-7.464-2.878-3.072 7.968 7.464 2.878zm-.66-5.407h6.432v-8h-6.432v8zm2.519-4.832l-10.944 51.456 7.825 1.664 10.944-51.456-7.825-1.664zM411.575 107h-6.72v8h6.72v-8zm-2.754 4.521l1.248-9.504-7.932-1.042-1.248 9.504 7.932 1.042zm-2.718-14.025h-.384v8h.384v-8zm-3.549 1.554a32.638 32.638 0 01-6.847 6.588l4.663 6.5a40.609 40.609 0 008.514-8.196l-6.33-4.892zm-6.8 6.554c-2.274 1.582-4.741 2.356-7.507 2.356v8c4.401 0 8.462-1.274 12.076-3.788l-4.569-6.568zm-4.723 3.348c3.415 0 6.556-1.266 9.355-3.425l-4.886-6.334c-1.681 1.297-3.148 1.759-4.469 1.759v8zm9.312-3.392c2.766-2.075 5.16-4.802 7.223-8.075l-6.767-4.266c-1.649 2.615-3.414 4.56-5.256 5.941l4.8 6.4zm7.223-8.075c2.091-3.316 3.654-6.994 4.709-11.003l-7.737-2.036c-.864 3.287-2.118 6.201-3.739 8.773l6.767 4.266zm4.697-10.957c.562-2.04.937-3.984 1.09-5.82l-7.972-.664c-.103 1.236-.369 2.683-.83 4.356l7.712 2.128zm1.075-5.675c.208-1.729.317-3.362.317-4.893h-8a33.23 33.23 0 01-.26 3.94l7.943.953zm.317-4.893c0-3.784-1.067-7.235-3.473-10.012l-6.046 5.24c.922 1.063 1.519 2.54 1.519 4.772h8zm-3.473-10.012c-2.512-2.898-5.908-4.26-9.743-4.26v8c1.797 0 2.881.558 3.697 1.5l6.046-5.24zm-9.743-4.26c-3.424 0-6.566 1.12-9.328 3.212l4.831 6.376c1.463-1.108 2.928-1.588 4.497-1.588v-8zm-9.265 3.165c-2.649 1.926-4.854 4.527-6.673 7.657l6.916 4.02c1.38-2.374 2.887-4.061 4.462-5.207l-4.705-6.47zm-6.652 7.621c-1.819 3.055-3.201 6.487-4.179 10.258l7.744 2.008c.814-3.14 1.927-5.853 3.309-8.174l-6.874-4.092zM380.326 82.8c-.91 3.78-1.359 7.712-1.359 11.784h8c0-3.48.383-6.78 1.137-9.912l-7.778-1.872zm-1.359 11.784c0 3.896.777 7.561 3.011 10.303l6.202-5.054c-.582-.714-1.213-2.233-1.213-5.249h-8zm3.011 10.303c2.286 2.805 5.491 4.065 9.053 4.065v-8c-1.558 0-2.321-.468-2.851-1.119l-6.202 5.054zm51.327 4.577l-2.3 3.273 2.3-3.273zm-2.688-15.552l3.898.9.009-.04.008-.04-3.915-.82zm5.856-27.936l3.915.82 1.011-4.82h-4.926v4zm-7.968 0l-3.922-.784-.957 4.784h4.879v-4zm.768-3.84l-1.556-3.685-1.951.824-.415 2.077 3.922.784zm8.64-3.648l1.556 3.685 1.266-.535.67-1.2-3.492-1.95zm5.952-10.656v-4h-2.347l-1.145 2.05 3.492 1.95zm4.992 0l3.906.864 1.076-4.864h-4.982v4zm-2.592 11.712l-3.905-.864-1.077 4.864h4.982v-4zm12.96 0l3.916.818 1.006-4.818h-4.922v4zm-1.344 6.432v4h3.251l.665-3.182-3.916-.818zm-12.864 0v-4h-3.24l-.673 3.17 3.913.83zm-5.952 28.032l3.898.9.008-.035.007-.034-3.913-.831zm-.576 2.88l3.932.737.004-.02.003-.022-3.939-.695zm.864 6.624l-3.2 2.4.047.062.049.06 3.104-2.522zm7.296 1.248l.695 3.939.112-.019.109-.026-.916-3.894zm3.456-.96h4v-5.458l-5.204 1.644 1.204 3.814zm0 6.432l1.789 3.578 2.211-1.106v-2.472h-4zm-3.552 1.152l-.933-3.89.933 3.89zm-4.512-3.424c-2.796 0-4.864-.664-6.436-1.769l-4.6 6.546c3.164 2.223 6.92 3.223 11.036 3.223v-8zm-6.436-1.769c-.887-.623-1.852-1.998-1.852-5.463h-8c0 4.855 1.403 9.304 5.252 12.009l4.6-6.546zm-1.852-5.463c0-1.681.238-3.645.762-5.917l-7.795-1.798c-.628 2.72-.967 5.3-.967 7.715h8zm.779-5.995l5.856-27.936-7.83-1.642-5.856 27.936 7.83 1.642zm1.941-32.757h-7.968v8h7.968v-8zm-4.045 4.784l.768-3.84-7.845-1.569-.768 3.84 7.845 1.57zm-1.599-.939l8.64-3.648-3.112-7.37-8.64 3.648 3.112 7.37zm10.576-5.382l5.952-10.656-6.984-3.902-5.952 10.656 6.984 3.902zm2.46-8.607h4.992v-8h-4.992v8zm1.087-4.864L442.36 58.68l7.811 1.728 2.592-11.712-7.811-1.728zm1.313 16.576h12.96v-8h-12.96v8zm9.045-4.818l-1.344 6.432 7.831 1.636 1.344-6.432-7.831-1.636zm2.571 3.25h-12.864v8h12.864v-8zm-16.777 3.17l-5.952 28.031 7.826 1.662 5.952-28.032-7.826-1.662zm-5.936 27.963a60.501 60.501 0 00-.618 3.084l7.878 1.39a53.52 53.52 0 01.535-2.676l-7.795-1.798zm-.61 3.042a19.609 19.609 0 00-.357 3.617h8c0-.613.066-1.324.22-2.143l-7.863-1.474zm-.357 3.617c0 2.202.589 4.327 1.952 6.144l6.4-4.8c-.173-.231-.352-.602-.352-1.344h-8zm2.048 6.266c1.84 2.265 4.502 3.014 7.04 3.014v-8c-.528 0-.788-.077-.874-.11-.056-.022-.007-.01.043.052l-6.209 5.044zm7.04 3.014c1.375 0 2.728-.115 4.055-.349l-1.39-7.878c-.849.15-1.736.227-2.665.227v8zm4.276-.394a52.126 52.126 0 003.745-1.04l-2.409-7.628c-1.134.358-2.189.65-3.168.88l1.832 7.788zm-1.46-4.854v6.432h8V103.8h-8zm2.211 2.854c-.35.175-1.175.475-2.696.84l1.867 7.78c1.679-.403 3.221-.871 4.407-1.464l-3.578-7.156zm-2.696.84c-1.344.323-2.533.466-3.579.466v8c1.77 0 3.59-.241 5.446-.686l-1.867-7.78zm19.944-.718l-2.96 2.691.026.028.026.027 2.908-2.746zm-3.072-26.304l-3.829-1.155-.006.02-.006.02 3.841 1.115zm5.184-10.944l3.298 2.263.011-.014.01-.016-3.319-2.233zm8.064-7.968l-2.108-3.4-.015.01-.015.01 2.138 3.38zm21.696.192l-2.622 3.02.019.017.019.016 2.584-3.053zm.576 17.952l-3.173-2.435-.018.023-.018.024 3.209 2.388zm-9.696 6.624l1.363 3.76.024-.008.024-.009-1.411-3.743zm-18.816 2.4v-4h-3.58l-.395 3.558 3.975.442zm-.192 1.824l-3.98-.398-.02.199v.199h4zm2.88 11.04l-3.073 2.561.018.021.018.021 3.037-2.603zm22.752-.576h4v-6.328l-5.716 2.715 1.716 3.613zm0 7.2l1.634 3.651 2.366-1.058v-2.593h-4zm-7.2 2.688l-1.14-3.834-.014.004-.015.005 1.169 3.825zm-5.664-29.952l.77 3.925.037-.007.037-.008-.844-3.91zm7.872-3.36l2.449 3.163.031-.024.031-.025-2.511-3.114zm1.248-10.368l-2.828 2.828.083.083.088.079 2.657-2.99zm-14.112 2.688l-2.828-2.828 2.828 2.828zm-6.336 12l-3.86-1.048-1.371 5.048h5.231v-4zm8.64 26.048c-5.147 0-8.589-1.467-10.916-3.93l-5.816 5.492c4.201 4.449 9.975 6.438 16.732 6.438v-8zm-10.864-3.875c-2.374-2.611-3.76-6.3-3.76-11.517h-8c0 6.687 1.815 12.47 5.84 16.899l5.92-5.382zm-3.76-11.517c0-3.715.522-7.372 1.57-10.98l-7.683-2.231a47.184 47.184 0 00-1.887 13.211h8zm1.558-10.941c1.104-3.663 2.66-6.933 4.652-9.836l-6.596-4.526c-2.488 3.625-4.388 7.65-5.715 12.052l7.659 2.31zm4.673-9.865c1.955-2.906 4.253-5.157 6.884-6.822l-4.277-6.76c-3.642 2.303-6.72 5.364-9.244 9.114l6.637 4.468zm6.853-6.802c2.532-1.57 5.379-2.376 8.644-2.376v-8c-4.671 0-8.992 1.178-12.86 3.576l4.216 6.8zm8.644-2.376c4.375 0 6.91.962 8.322 2.188l5.245-6.04c-3.452-2.998-8.214-4.148-13.567-4.148v8zm8.36 2.221c1.454 1.23 2.328 2.977 2.328 5.779h8c0-4.75-1.622-8.892-5.16-11.886l-5.168 6.107zm2.328 5.779c0 2.408-.741 4.6-2.341 6.685l6.346 4.87c2.624-3.418 3.995-7.307 3.995-11.555h-8zm-2.377 6.732c-1.449 1.947-3.938 3.777-7.897 5.269l2.821 7.486c4.873-1.836 8.847-4.422 11.494-7.979l-6.418-4.776zm-7.849 5.251c-3.819 1.384-9.038 2.161-15.822 2.161v8c7.296 0 13.533-.823 18.547-2.64l-2.725-7.52zm-15.822 2.161H469.5v8h1.632v-8zm-5.607 3.558c-.066.592-.132 1.215-.197 1.868l7.96.796c.063-.627.126-1.22.188-1.78l-7.951-.884zm-.217 2.266V92.28h8v-.003-.003-.003-.003-.003-.003-.003-.003-.003-.003-.003-.003-.003-.003-.003-.003-.003-.003-.003-.003-.003-.003-.003-.003-.004-.002-.004-.003-.003-.003-.003-.003-.003-.003-.003-.003-.003-.003-.003-.003-.003-.003-.003-.003-.004-.003-.003-.003-.003-.003-.003-.003-.003-.003-.003-.003-.003-.004-.003-.003-.003-.003-.003-.003-.003-.003-.003-.003-.003-.004-.003-.003-.003-.003-.003-.003-.003-.004-.003-.003-.003-.003-.003-.003-.003-.003-.004-.003-.003-.003-.003-.003-.003-.004-.003-.003-.003-.003-.003-.003-.004-.003-.003-.003-.003-.003-.003-.003-.004-.003-.003-.003-.003-.004-.003-.003-.003-.003-.003-.004-.003-.003-.003-.003-.003-.004-.003-.003-.003-.003-.004-.003-.003-.003-.003-.003-.004-.003-.003-.003-.004-.003-.003-.003-.003-.004-.003-.003-.003-.003-.004-.003-.003-.003-.004-.003-.003-.003-.004-.003-.003-.003-.004-.003-.003-.003-.003-.004-.003-.003-.003-.004-.003-.003-.003-.004-.003-.003-.004-.003-.003-.003-.003-.004-.003-.003-.004-.003-.003-.003-.004-.003-.003-.004-.003-.003-.003-.004-.003-.003-.004-.003-.003-.004-.003-.003-.003-.004-.003-.003-.004-.003-.003-.004-.003-.003-.004-.003-.003-.003-.004-.003-.003-.004-.003-.003-.004-.003-.003-.004-.003-.003-.004-.003-.003-.004-.003-.004-.003-.003-.004-.003-.003-.004-.003-.003-.004-.003-.003-.004-.003-.003-.004-.003-.004-.003-.003-.004-.003-.003-.004-.003-.004-.003-.003-.004-.003-.004-.003-.003-.004-.003-.004-.003-.003-.004-.003-.004-.003-.003-.004-.003-.004-.003-.004-.003-.003-.004-.003-.004-.003-.004-.003-.003-.004-.003-.004-.003-.004-.003-.003-.004-.003-.004-.003-.004-.003-.004-.003-.003-.004-.003-.004-.003-.004-.003-.004-.003-.003-.004-.004-.003-.003-.004-.003-.004-.003-.004-.003-.004-.003-.004-.003-.004-.003-.004-.003-.004-.003-.004-.003-.004-.003-.004-.003-.004-.003-.004-.003-.004-.003-.004-.003-.004-.003-.004-.003-.004-.003-.004-.004-.003-.004-.003-.004-.003-.004-.003-.004-.003-.004-.003-.004-.003-.004-.004-.003-.004-.003-.004-.003-.004-.003-.004-.004-.003-.004-.003-.004V91v-.004-.004-.003-.004-.003-.004-.003-.004-.004-.003-.004-.003-.004-.004-.003-.004-.003-.004-.004-.003-.004-.003-.004-.004-.003-.004-.003-.004-.004-.003-.004-.003-.004-.004-.003-.004-.004-.003-.004-.003-.004-.004-.003-.004-.004-.003-.004-.003-.004-.004-.003-.004-.004-.003-.004-.004-.003-.004-.004-.003-.004-.004-.003-.004-.004-.003-.004-.004-.003-.004-.004-.003-.004-.004-.003-.004-.004-.003-.004-.004-.004-.003-.004-.004-.003-.004-.004-.003-.004-.004-.004-.003-.004-.004-.003-.004-.004-.003-.004-.004-.004-.003-.004-.004-.004-.003-.004-.004-.003-.004-.004-.004-.003-.004-.004-.004-.003-.004-.004-.004-.003-.004h-8zm0 1.728c0 4.553 1.127 8.657 3.807 11.873l6.146-5.122c-1.16-1.392-1.953-3.496-1.953-6.751h-8zm3.843 11.915c2.907 3.392 7.103 4.757 11.773 4.757v-8c-3.137 0-4.766-.875-5.699-1.963l-6.074 5.206zm11.773 4.757c2.824 0 5.545-.41 8.144-1.25l-2.463-7.612c-1.754.568-3.64.862-5.681.862v8zm8.144-1.25c2.375-.769 4.907-1.799 7.588-3.073l-3.432-7.226c-2.438 1.158-4.642 2.048-6.619 2.687l2.463 7.612zm1.872-6.686v7.2h8v-7.2h-8zm2.367 3.549a54.35 54.35 0 01-6.707 2.505l2.28 7.668a62.467 62.467 0 007.694-2.871l-3.267-7.302zm-6.736 2.514c-1.817.555-4.184.881-7.183.881v8c3.53 0 6.731-.378 9.521-1.231l-2.338-7.65zM471.42 85.912c4.06 0 7.873-.338 11.426-1.035l-1.539-7.85c-2.976.583-6.266.885-9.887.885v8zm11.5-1.05c3.663-.79 6.891-2.105 9.477-4.107l-4.897-6.326c-1.383 1.07-3.403 1.995-6.267 2.613l1.687 7.82zm9.539-4.156c2.958-2.385 4.465-5.658 4.465-9.45h-8c0 1.456-.476 2.407-1.487 3.222l5.022 6.228zm4.465-9.45c0-2.704-.991-5.173-3.07-7.022l-5.315 5.98c.224.2.385.418.385 1.042h8zm-2.899-6.86c-2.158-2.158-5.143-2.804-8.013-2.804v8c1.867 0 2.338.442 2.356.46l5.657-5.656zm-8.013-2.804c-4.444 0-8.379 2.114-11.756 5.492l5.657 5.656c2.383-2.382 4.399-3.148 6.099-3.148v-8zm-11.756 5.492c-3.452 3.451-5.838 8.148-7.368 13.78l7.72 2.096c1.287-4.736 3.125-8.04 5.305-10.22l-5.657-5.656zm-3.508 18.828h.672v-8h-.672v8z" fill="#009EE3"/></svg>